# xmcd
#
# Track frame offsets:
#	150
#	21812
#	36996
#	60901
#	101400
#	119300
#	148874
#	182656
#	233682
#
# Disc length: 3549 seconds
#
# Revision: 0
# Processed by: cddbd v1.5.1PL0 Copyright (c) Steve Scherf et al.
# Submitted via: EasyCDDAExtractor 8.1.0.1
#
DISCID=700ddb09
DTITLE=Les Marvellous Pig Noise - Live au Sax
DYEAR=2004
DGENRE=Blues
TTITLE0=Ma culture
TTITLE1=Kokomo Blues
TTITLE2=Think about it
TTITLE3=Something don't work
TTITLE4=Stone drunk and naked
TTITLE5=Come on in my kitchen
TTITLE6=Mother earth
TTITLE7=Somebody's callin my name
TTITLE8=Louise and Anne
EXTD=
EXTT0=
EXTT1=
EXTT2=
EXTT3=
EXTT4=
EXTT5=
EXTT6=
EXTT7=
EXTT8=
PLAYORDER=
